<svg id="Shape" xmlns="http://www.w3.org/2000/svg" viewBox="0 0 154 154"><defs><style>.cls-1{fill:#066da5;fill-rule:evenodd;}</style></defs><title>Mesa de trabajo 1</title><path class="cls-1" d="M150.05,64.36c-3.44-2.3-11.34-3.14-17.42-2-.78-5.73-4-10.69-9.78-15.18L119.52,45l-2.23,3.34a25.92,25.92,0,0,0-3.81,16A20.3,20.3,0,0,0,116.42,73a24,24,0,0,1-11.53,2.54H1.36l-.2,1.19c-1,5.74-1,23.65,10.68,37.42C20.67,124.65,33.92,130,51.22,130c37.5,0,65.24-17.26,78.24-48.64,5.11.1,16.11,0,21.76-10.77.15-.25.49-.9,1.47-2.94l.54-1.12Zm-81.66-26H84.14V24H68.4Zm0,17.17H84.14V41.22H68.4Zm-18.6,0H65.53V41.22H49.79Zm-18.6,0H46.93V41.22H31.19ZM12.58,72.71H28.32V58.4H12.58Zm18.6,0H46.93V58.4H31.19Zm18.6,0H65.53V58.4H49.79Zm18.6,0H84.14V58.4H68.4Zm18.6,0h15.74V58.4H87Z"/></svg>