<svg id="Capa_1" data-name="Capa 1" xmlns="http://www.w3.org/2000/svg" xmlns:xlink="http://www.w3.org/1999/xlink" viewBox="0 0 145 145"><defs><style>.cls-1,.cls-2{fill:none;}.cls-1{clip-rule:evenodd;}.cls-3,.cls-4{fill:#099cec;}.cls-10,.cls-4,.cls-8{fill-rule:evenodd;}.cls-5{clip-path:url(#clip-path);}.cls-6{clip-path:url(#clip-path-2);}.cls-7{fill:#fff;}.cls-8{fill:#026fb6;}.cls-9{fill:#4d5c64;}.cls-10{opacity:0.05;}.cls-11{fill:#066da5;}</style><clipPath id="clip-path"><path class="cls-1" d="M38.35,103.12a84,84,0,0,1-25.41,4.27c8.28,6.9,23,19.93,47.35,12.49A37.79,37.79,0,0,1,38.35,103.12Z"/></clipPath><clipPath id="clip-path-2"><rect class="cls-2" x="-74.87" y="-30.48" width="276.01" height="276.01"/></clipPath></defs><title>Mesa de trabajo 1</title><rect class="cls-3" x="29.31" y="57.46" width="14.88" height="13.53"/><rect class="cls-3" x="11.72" y="57.46" width="14.88" height="13.53"/><rect class="cls-3" x="46.9" y="57.46" width="14.88" height="13.53"/><rect class="cls-3" x="64.49" y="57.46" width="14.88" height="13.53"/><rect class="cls-3" x="82.08" y="57.46" width="14.88" height="13.53"/><rect class="cls-3" x="29.31" y="41.22" width="14.88" height="13.53"/><rect class="cls-3" x="46.9" y="41.22" width="14.88" height="13.53"/><rect class="cls-3" x="64.49" y="41.22" width="14.88" height="13.53"/><rect class="cls-3" x="64.49" y="24.99" width="14.88" height="13.53"/><path class="cls-4" d="M141.29,61.64c-3.05-2.06-11.08-2.93-16.91-1.36-.31-5.81-3.31-10.71-8.79-15l-2-1.36-1.35,2a23.31,23.31,0,0,0-3.38,14.3,17,17,0,0,0,3.38,8.85c-1.55,1.2-6.36,3.53-12.85,3.41H2.61c-1.72,10.22,1.23,49,46,49,33.24,0,60.55-14.95,73.06-46.31,4.12.07,15,.74,20.29-9.53.13-.17,1.35-2.72,1.35-2.72Z"/><g class="cls-5"><g class="cls-6"><rect class="cls-7" x="6.18" y="96.36" width="60.88" height="32.52"/></g></g><path class="cls-8" d="M37.12,100.74a36.21,36.21,0,0,1-18,4.73,36.59,36.59,0,0,1-9.56-1.26l1.93,3.25a39.37,39.37,0,0,0,26.94-4.33C38,102.34,37.52,101.56,37.12,100.74Z"/><ellipse class="cls-7" cx="47.41" cy="94.24" rx="4.7" ry="4.74"/><path class="cls-9" d="M48.12,92.91a1.34,1.34,0,0,1,.53-1.05,2.64,2.64,0,0,0-1.22-.31,2.71,2.71,0,1,0,2.69,2.71c0-.05,0-.1,0-.16a1.31,1.31,0,0,1-.62.17A1.36,1.36,0,0,1,48.12,92.91Z"/><path class="cls-10" d="M140.9,61.4c-3-2-11.37-3-16.93-1.38l-1.24,1.75c-18.13,37.52-40.82,53.39-71.82,54.09C17.1,115.76,8.64,97.94,6.26,73.63H.85c-.7,10.22,1.91,47.78,47,47.78,33.28,0,60.68-14.91,73.33-46.24,4.13.07,15.63.07,20.7-10.22l1-2.18Z"/><rect class="cls-11" x="14.43" y="60.16" width="1.35" height="8.12"/><rect class="cls-11" x="18.49" y="60.16" width="1.35" height="8.12"/><rect class="cls-11" x="22.55" y="60.16" width="1.35" height="8.12"/><rect class="cls-11" x="32.02" y="60.16" width="1.35" height="8.12"/><rect class="cls-11" x="36.08" y="60.16" width="1.35" height="8.12"/><rect class="cls-11" x="40.14" y="60.16" width="1.35" height="8.12"/><rect class="cls-11" x="49.61" y="60.16" width="1.35" height="8.12"/><rect class="cls-11" x="53.67" y="60.16" width="1.35" height="8.12"/><rect class="cls-11" x="57.72" y="60.16" width="1.35" height="8.12"/><rect class="cls-11" x="67.2" y="60.16" width="1.35" height="8.12"/><rect class="cls-11" x="71.25" y="60.16" width="1.35" height="8.12"/><rect class="cls-11" x="75.31" y="60.16" width="1.35" height="8.12"/><rect class="cls-11" x="84.78" y="60.16" width="1.35" height="8.12"/><rect class="cls-11" x="88.84" y="60.16" width="1.35" height="8.12"/><rect class="cls-11" x="92.9" y="60.16" width="1.35" height="8.12"/><rect class="cls-11" x="36.08" y="43.93" width="1.35" height="8.12"/><rect class="cls-11" x="40.14" y="43.93" width="1.35" height="8.12"/><rect class="cls-11" x="49.61" y="43.93" width="1.35" height="8.12"/><rect class="cls-11" x="53.67" y="43.93" width="1.35" height="8.12"/><rect class="cls-11" x="57.72" y="43.93" width="1.35" height="8.12"/><rect class="cls-11" x="67.2" y="43.93" width="1.35" height="8.12"/><rect class="cls-11" x="71.25" y="43.93" width="1.35" height="8.12"/><rect class="cls-11" x="75.31" y="43.93" width="1.35" height="8.12"/><rect class="cls-11" x="71.25" y="27.69" width="1.35" height="8.12"/><rect class="cls-11" x="67.2" y="27.69" width="1.35" height="8.12"/><rect class="cls-11" x="75.31" y="27.69" width="1.35" height="8.12"/><rect class="cls-11" x="32.02" y="43.93" width="1.35" height="8.12"/><path class="cls-11" d="M141.57,60.29c-3.25-2.19-10.66-3-16.47-1.9-.75-5.47-3.82-10.22-9.2-14.42l-3.19-2.14L110.6,45A24.65,24.65,0,0,0,107,60.17a19.22,19.22,0,0,0,2.79,8.39,22.66,22.66,0,0,1-10.12,2.39V54.75H82.08V22.28H61.78V38.52H26.61V54.75H9V71H1L.8,72.09A43,43,0,0,0,1,84.49a49.09,49.09,0,0,0,5.56,16.85c7.5,13.47,21.14,21.38,41.62,21.38,34.84,0,61.54-16.09,74-46.29a27.5,27.5,0,0,0,10.39-1.35,17.78,17.78,0,0,0,10.18-8.89c.13-.22.32-.6.73-1.43l.46-.95.21-.43.51-1.07ZM82.08,57.46H97V71H82.08ZM64.49,25H79.37V38.52H64.49Zm0,16.24H79.37V54.75H64.49Zm0,16.24H79.37V71H64.49ZM46.9,41.22H61.78V54.75H46.9Zm0,16.24H61.78V71H46.9ZM29.31,41.22H44.19V54.75H29.31Zm0,16.24H44.19V71H29.31Zm-17.59,0H26.61V71H11.72Zm129.22,6.13-.42.84c-.06.12-.11.21-.24.44a15.09,15.09,0,0,1-8.7,7.62,25.51,25.51,0,0,1-9.67,1.19h-.7l-.93,0-.35.87C108.1,104.22,82.26,120,48.14,120c-19.51,0-32.23-7.39-39.26-20A46.38,46.38,0,0,1,3.64,84.1a43.24,43.24,0,0,1-.33-10.41H99.67v0C105,73.61,110,71.95,112.55,70l1.11-.86L112.77,68a15.58,15.58,0,0,1-3.08-8.13,21.9,21.9,0,0,1,3.16-13.41l.6-.91.86.58c5.25,4.1,7.95,8.66,8.23,14l.09,1.68,1.61-.43c5.27-1.42,13-.73,15.81,1.18l1,.7Z"/></svg>