<svg xmlns="http://www.w3.org/2000/svg" viewBox="0 0 100 100">
    <defs>
        <style>
        .cls-1{fill:#df5c40;}
        </style>
    </defs>
    <title>Git Logo</title>
    <path class="cls-1" d="M94.21,45.91,54.09,5.79a5.92,5.92,0,0,0-8.37,0l-8.33,8.33L48,24.69a7,7,0,0,1,8.9,9L67,43.83a7,7,0,1,1-4.22,4l-9.5-9.5v25a7,7,0,1,1-5.79-.21V37.87a7,7,0,0,1-3.82-9.23L33.3,18.21,5.79,45.72a5.92,5.92,0,0,0,0,8.37L45.91,94.21a5.92,5.92,0,0,0,8.37,0L94.21,54.28A5.92,5.92,0,0,0,94.21,45.91Z"/>
</svg>